<svg xmlns="http://www.w3.org/2000/svg" width="129" height="129" viewBox="0 0 129 129"><defs><style>.a{fill:#2a2c35;}</style></defs><path class="a" d="M64.42,30.41A32.651,32.651,0,1,0,97.29,63.06,32.8,32.8,0,0,0,64.42,30.41Zm0,55.3A22.651,22.651,0,1,1,87.29,63.06,22.786,22.786,0,0,1,64.42,85.71Z"/><path class="a" d="M98.69,34.81a4.483,4.483,0,0,0,3.18-1.32l8.17-8.16a4.5,4.5,0,0,0-6.36-6.36l-8.17,8.16a4.5,4.5,0,0,0,3.18,7.68Z"/><path class="a" d="M124.5,60H112.95a4.5,4.5,0,1,0,0,9H124.5a4.5,4.5,0,0,0,0-9Z"/><path class="a" d="M101.87,95.51a4.5,4.5,0,0,0-6.36,6.36l8.17,8.17a4.5,4.5,0,0,0,6.36-6.36Z"/><path class="a" d="M64.5,108.45a4.494,4.494,0,0,0-4.5,4.5V124.5a4.5,4.5,0,0,0,9,0V112.95A4.5,4.5,0,0,0,64.5,108.45Z"/><path class="a" d="M27.13,95.51l-8.17,8.17a4.5,4.5,0,1,0,6.36,6.36l8.17-8.17a4.5,4.5,0,0,0-6.36-6.36Z"/><path class="a" d="M20.55,64.5a4.494,4.494,0,0,0-4.5-4.5H4.5a4.5,4.5,0,0,0,0,9H16.05A4.5,4.5,0,0,0,20.55,64.5Z"/><path class="a" d="M27.13,33.49a4.5,4.5,0,1,0,6.36-6.36l-8.17-8.16a4.5,4.5,0,0,0-6.36,6.36Z"/><path class="a" d="M64.5,20.55a4.494,4.494,0,0,0,4.5-4.5V4.5a4.5,4.5,0,0,0-9,0V16.05A4.5,4.5,0,0,0,64.5,20.55Z"/></svg>